HIERARCHY
ROOT Hips
{
	OFFSET 0.000000 0.000000 0.000000
	CHANNELS 6 Xposition Yposition Zposition Xrotation Yrotation Zrotation
	JOINT LeftUpLeg_virtual
	{
		OFFSET 0.000000 0.000000 0.000000
		CHANNELS 3 Xrotation Yrotation Zrotation
		JOINT LeftUpLeg
		{
			OFFSET 11.394100 -6.187798 -0.413800
			CHANNELS 3 Xrotation Yrotation Zrotation
			JOINT LeftLeg
			{
				OFFSET 0.430247 -32.302673 3.732800
				CHANNELS 3 Xrotation Yrotation Zrotation
				JOINT LeftFoot
				{
					OFFSET -0.430247 -48.264931 -6.423300
					CHANNELS 3 Xrotation Yrotation Zrotation
					JOINT LeftToeBase
					{
						OFFSET 4.230900 -16.068199 23.438400
						CHANNELS 3 Xrotation Yrotation Zrotation
						JOINT LeftToe_End
						{
							OFFSET 4.510700 0.695400 19.974600
							CHANNELS 3 Xrotation Yrotation Zrotation
							End Site
							{
								OFFSET 0 0 0
							}
						}
					}
				}
			}
		}
	}
	JOINT RightUpLeg_virtual
	{
		OFFSET 0.000000 0.000000 0.000000
		CHANNELS 3 Xrotation Yrotation Zrotation
		JOINT RightUpLeg
		{
			OFFSET -11.333700 -6.187798 -0.413800
			CHANNELS 3 Xrotation Yrotation Zrotation
			JOINT RightLeg
			{
				OFFSET -0.430392 -32.302628 3.733000
				CHANNELS 3 Xrotation Yrotation Zrotation
				JOINT RightFoot
				{
					OFFSET 0.430392 -48.264973 -6.423500
					CHANNELS 3 Xrotation Yrotation Zrotation
					JOINT RightToeBase
					{
						OFFSET -4.230900 -16.068199 23.438400
						CHANNELS 3 Xrotation Yrotation Zrotation
						JOINT RightToe_End
						{
							OFFSET -4.510700 0.695400 19.974600
							CHANNELS 3 Xrotation Yrotation Zrotation
							End Site
							{
								OFFSET 0 0 0
							}
						}
					}
				}
			}
		}
	}
	JOINT Spine_virtual
	{
		OFFSET 0.000000 0.000000 0.000000
		CHANNELS 3 Xrotation Yrotation Zrotation
		JOINT Spine
		{
			OFFSET -0.002400 12.777504 0.315300
			CHANNELS 3 Xrotation Yrotation Zrotation
			JOINT Spine1
			{
				OFFSET -0.002067 5.816869 0.032633
				CHANNELS 3 Xrotation Yrotation Zrotation
				JOINT Spine1_split
				{
					OFFSET -0.002067 5.816869 0.032633
					CHANNELS 3 Xrotation Yrotation Zrotation
					JOINT Spine2
					{
						OFFSET -0.002067 5.816869 0.032633
						CHANNELS 3 Xrotation Yrotation Zrotation
						JOINT Neck_virtual
						{
							OFFSET 0.000000 0.000000 0.000000
							CHANNELS 3 Xrotation Yrotation Zrotation
							JOINT Neck
							{
								OFFSET -0.003700 21.199493 -0.826900
								CHANNELS 3 Xrotation Yrotation Zrotation
								JOINT Head
								{
									OFFSET 0.000000 20.442200 4.834800
									CHANNELS 3 Xrotation Yrotation Zrotation
									JOINT HeadTop_End
									{
										OFFSET 0.000000 34.668396 4.968400
										CHANNELS 3 Xrotation Yrotation Zrotation
										End Site
										{
											OFFSET 0 0 0
										}
									}
								}
							}
						}
						JOINT LeftShoulder_virtual
						{
							OFFSET 0.000000 0.000000 0.000000
							CHANNELS 3 Xrotation Yrotation Zrotation
							JOINT LeftShoulder
							{
								OFFSET 3.288150 8.794197 -1.372250
								CHANNELS 3 Xrotation Yrotation Zrotation
								JOINT LeftShoulder_split
								{
									OFFSET 3.288150 8.794197 -1.372250
									CHANNELS 3 Xrotation Yrotation Zrotation
									JOINT LeftArm
									{
										OFFSET 11.953299 -2.279007 -0.146200
										CHANNELS 3 Xrotation Yrotation Zrotation
										JOINT LeftForeArm
										{
											OFFSET 18.448900 0.000000 0.000000
											CHANNELS 3 Xrotation Yrotation Zrotation
											JOINT LeftHand
											{
												OFFSET 29.527798 0.000000 0.000000
												CHANNELS 3 Xrotation Yrotation Zrotation
												End Site
												{
													OFFSET 0 0 0
												}
											}
										}
									}
								}
							}
						}
						JOINT RightShoulder_virtual
						{
							OFFSET 0.000000 0.000000 0.000000
							CHANNELS 3 Xrotation Yrotation Zrotation
							JOINT RightShoulder
							{
								OFFSET -3.249400 8.794197 -1.372250
								CHANNELS 3 Xrotation Yrotation Zrotation
								JOINT RightShoulder_split
								{
									OFFSET -3.249400 8.794197 -1.372250
									CHANNELS 3 Xrotation Yrotation Zrotation
									JOINT RightArm
									{
										OFFSET -11.953299 -2.279007 -0.146200
										CHANNELS 3 Xrotation Yrotation Zrotation
										JOINT RightForeArm
										{
											OFFSET -18.448900 0.000000 0.000000
											CHANNELS 3 Xrotation Yrotation Zrotation
											JOINT RightHand
											{
												OFFSET -29.527802 0.000000 0.000000
												CHANNELS 3 Xrotation Yrotation Zrotation
												End Site
												{
													OFFSET 0 0 0
												}
											}
										}
									}
								}
							}
						}
					}
				}
			}
		}
	}
}
MOTION
Frames: 6
Frame Time: 0.03333333
-2.587669 82.123940 2.140684 0.000000 0.000000 0.000000 4.915816 58.312405 -11.016100 -6.537642 6.247845 23.124521 50.143161 -9.582529 9.753938 -25.034484 7.086705 -17.100722 -9.782449 -0.278485 -1.862788 0.000000 0.000000 0.000000 7.358792 58.785007 -13.230845 -52.894491 13.272640 -18.832408 33.927998 5.012708 -3.718950 8.919902 8.492679 10.952070 -8.488235 -0.642461 1.793930 0.000000 0.000000 0.000000 5.135429 58.982645 -8.297053 0.978918 -3.056208 -2.307806 2.866507 -0.888567 -0.237766 1.381438 -0.363341 0.144390 0.000000 0.000000 0.000000 1.683491 -1.114229 -0.096530 -5.599922 -10.252839 -0.040376 -2.949017 -42.478138 5.977539 0.000000 0.000000 0.000000 1.625787 -1.137581 -0.416803 0.313265 -8.723099 -9.120116 -3.436276 0.855669 -2.190675 -2.207292 -43.270891 -50.785851 172.956017 -76.473441 173.051298 0.000000 0.000000 0.000000 2.486315 -0.882167 -0.308759 -0.037618 -1.545794 10.314791 -4.853261 6.313246 -0.085535 -24.073191 -8.665156 45.834418 -178.274235 67.116075 176.934889 0.000000 0.000000 0.000000 
-2.546926 85.126381 1.247339 0.000000 0.000000 0.000000 4.844350 56.223354 -10.881595 -6.864679 4.252537 23.004881 48.081533 -7.694893 8.582471 -19.737377 7.595604 -14.963633 -8.676487 -0.044037 -2.943918 0.000000 0.000000 0.000000 7.166332 55.799541 -12.501194 -51.154931 10.219173 -19.418303 29.528947 6.386704 -3.668611 11.113182 10.963046 14.075586 -10.586937 -0.047633 0.833570 0.000000 0.000000 0.000000 5.393006 56.206159 -8.508126 0.437422 -3.224376 -1.845291 2.600445 -0.896011 -0.141114 1.471987 -0.514809 0.121103 0.000000 0.000000 0.000000 2.139246 -1.033624 -0.093215 -5.428022 -10.060945 0.122084 -2.435618 -42.375115 5.997540 0.000000 0.000000 0.000000 1.676026 -1.128343 -0.279243 0.324501 -9.175611 -8.136297 -3.914204 -0.505365 -0.802228 -5.504177 -43.566457 -50.860751 174.958110 -75.094433 175.250264 0.000000 0.000000 0.000000 2.551868 -0.856605 -0.181212 -0.005163 -1.584960 9.870971 -5.232759 5.082321 -0.853273 -25.434791 -9.039085 44.880470 -179.151258 66.181582 177.480348 0.000000 0.000000 0.000000 
-2.151474 90.825272 -0.373228 0.000000 0.000000 0.000000 4.571900 52.438074 -10.528586 -8.211311 1.964102 22.432848 43.979434 -5.846412 7.045034 -9.442360 6.528930 -14.040495 -5.812198 0.196042 -5.847489 0.000000 0.000000 0.000000 6.981075 50.890800 -11.648472 -47.578937 6.879160 -18.763945 21.601112 7.725689 -3.112853 12.994728 13.260469 15.886771 -10.434721 0.479578 0.323082 0.000000 0.000000 0.000000 5.462575 51.458905 -8.454377 -0.061809 -3.088260 -1.180497 2.429548 -0.758038 -0.162912 1.565013 -0.352311 0.129311 0.000000 0.000000 0.000000 2.650418 -0.814370 -0.188637 -5.068242 -9.540771 0.391919 -1.532186 -40.867675 6.035481 0.000000 0.000000 0.000000 1.913202 -0.938168 -0.223416 0.339064 -9.284112 -6.733768 -3.362991 -1.444054 -0.392716 -9.409750 -43.334145 -50.082348 177.442167 -72.712370 177.690841 0.000000 0.000000 0.000000 2.695549 -0.730835 -0.213722 0.089209 -1.318213 8.983617 -5.169571 3.760941 -0.684395 -27.326629 -7.644545 42.514591 -179.080047 65.226449 177.204450 0.000000 0.000000 0.000000 
-1.480628 97.511208 -2.435055 0.000000 0.000000 0.000000 3.983556 47.113965 -10.010224 -9.780571 0.430532 21.383748 40.204645 -3.947361 5.514620 2.784733 4.302009 -13.306349 -6.442359 0.375463 -8.220673 0.000000 0.000000 0.000000 6.238174 44.957664 -10.587644 -43.466723 3.622341 -17.084236 14.640738 7.942252 -2.264600 13.666152 13.629258 15.628827 -8.406024 0.775695 0.205732 0.000000 0.000000 0.000000 5.118369 45.546170 -7.945091 -0.242086 -2.693963 -0.502499 2.356386 -0.491919 -0.245474 1.370380 -0.227552 0.115241 0.000000 0.000000 0.000000 3.081240 -0.486086 -0.331102 -4.606996 -8.789291 0.681815 -0.416135 -38.038976 5.968479 0.000000 0.000000 0.000000 2.251812 -0.612211 -0.230369 0.315367 -8.988418 -5.234328 -2.483434 -1.641634 -0.755276 -13.205844 -42.164411 -48.947533 179.580235 -70.362847 179.621298 0.000000 0.000000 0.000000 2.894317 -0.489920 -0.369892 0.180830 -0.670211 7.949845 -4.712048 3.136953 0.012889 -28.982135 -4.712139 39.713548 -178.466409 64.647153 176.611466 0.000000 0.000000 0.000000 
-0.730340 103.666901 -4.135498 0.000000 0.000000 0.000000 3.017824 41.025398 -9.025857 -11.068513 0.110151 19.542414 37.778364 -1.991506 4.335924 11.859175 1.936580 -11.716465 -11.327012 0.772735 -8.890866 0.000000 0.000000 0.000000 4.695666 38.469828 -9.236109 -40.005702 0.744614 -15.035652 12.072857 6.844924 -1.556169 12.988493 11.376880 13.839773 -7.044229 0.819684 0.181384 0.000000 0.000000 0.000000 4.304833 39.501959 -7.008643 -0.022841 -2.104108 0.052746 2.404934 -0.133948 -0.324706 1.040112 -0.149382 -0.074571 0.000000 0.000000 0.000000 3.352948 -0.093439 -0.450090 -4.105254 -7.825992 0.890881 0.681363 -34.260676 5.745164 0.000000 0.000000 0.000000 2.629734 -0.194157 -0.274035 0.230474 -8.300758 -3.930818 -1.856075 -1.077035 -1.254039 -16.344366 -40.232177 -47.854689 -178.944795 -68.736422 -179.165834 0.000000 0.000000 0.000000 3.103745 -0.142063 -0.578885 0.324299 0.327307 7.187063 -4.057263 3.307570 0.382723 -29.982376 -0.932070 37.349657 -177.676334 64.713775 176.090350 0.000000 0.000000 0.000000 
0.136269 108.044601 -5.175499 0.000000 0.000000 0.000000 1.641126 34.459264 -7.522539 -13.331539 0.923987 17.569950 38.025504 0.028738 3.371211 15.514208 0.299996 -9.869330 -14.872085 1.283591 -9.176851 0.000000 0.000000 0.000000 2.461784 32.331623 -7.581197 -37.709041 -1.223802 -13.295691 15.522508 5.212982 -1.234911 11.023840 7.452704 11.313952 -7.237342 0.708331 -0.016908 0.000000 0.000000 0.000000 3.005357 34.133467 -5.767293 0.520296 -1.407479 0.439294 2.546841 0.283338 -0.343188 0.778455 -0.032561 -0.248206 0.000000 0.000000 0.000000 3.421178 0.302731 -0.503130 -3.641512 -6.717340 0.940020 1.603830 -30.042929 5.380666 0.000000 0.000000 0.000000 2.969603 0.245642 -0.322674 0.128232 -7.411653 -3.078161 -1.739545 -0.295915 -1.789938 -17.981474 -37.738492 -47.115372 -178.175402 -68.072821 -178.609706 0.000000 0.000000 0.000000 3.298417 0.273238 -0.749281 0.540491 1.521462 7.029126 -3.382009 3.763540 0.332793 -30.128122 2.767168 36.034900 -177.134167 65.573955 176.010095 0.000000 0.000000 0.000000 
